<svg width="30" height="22" viewBox="0 0 30 22" fill="none" xmlns="http://www.w3.org/2000/svg">
<path d="M4.66495 11.1757C4.66495 14.5199 7.27019 17.2394 10.4711 17.2394C11.4516 17.2423 12.4167 16.9841 13.2752 16.4892C14.1336 15.9942 14.8571 15.2787 15.3774 14.4104L16.8773 12.0173L16.892 11.9955L20.141 15.3897L20.1369 15.3964L19.5476 16.3891C19.5203 16.4373 19.4931 16.4878 19.4656 16.536L19.2287 16.9349C17.278 20.0355 14.0056 21.8784 10.4711 21.8784C4.69637 21.8784 0 16.9698 0 10.9392C0 4.90864 4.69564 4.4294e-07 10.4711 4.4294e-07C12.202 -0.000514206 13.9061 0.447454 15.4307 1.30379L15.4977 1.34124L19.6048 5.62966L29 15.4472L28.9951 22L14.9664 7.33898C14.7201 7.02494 14.4447 6.73719 14.1441 6.47996C14.1274 6.46457 14.1105 6.45149 14.095 6.43841L14.0383 6.39224C13.0221 5.55688 11.7654 5.10492 10.4723 5.10974C7.2702 5.11025 4.66495 7.83197 4.66495 11.1757Z" fill="white"/>
<path d="M24.4847 8L24.4916 7.99173L30 0H24.3216L21.0135 4.80127L21 4.82219L24.4847 8Z" fill="white"/>
</svg>
